<svg xmlns="http://www.w3.org/2000/svg" xmlns:xlink="http://www.w3.org/1999/xlink" width="500" zoomAndPan="magnify" viewBox="0 0 375 374.999991" height="500" preserveAspectRatio="xMidYMid meet" version="1.0"><defs><g/><clipPath id="9b9ca410fa"><path d="M 52.523438 1.261719 L 322.523438 1.261719 L 322.523438 271.261719 L 52.523438 271.261719 Z M 52.523438 1.261719 " clip-rule="nonzero"/></clipPath><clipPath id="c7b823f9bc"><path d="M 80.230469 130.589844 L 174.761719 130.589844 L 174.761719 375 L 80.230469 375 Z M 80.230469 130.589844 " clip-rule="nonzero"/></clipPath><clipPath id="0f3d521db9"><path d="M 186.375 28.582031 L 313.875 28.582031 L 313.875 243.832031 L 186.375 243.832031 Z M 186.375 28.582031 " clip-rule="nonzero"/></clipPath></defs><rect x="-37.5" width="450" fill="#ffffff" y="-37.499999" height="449.999989" fill-opacity="1"/><rect x="-37.5" width="450" fill="#ffffff" y="-37.499999" height="449.999989" fill-opacity="1"/><g clip-path="url(#9b9ca410fa)"><path fill="#000000" d="M 187.558594 1.261719 C 112.980469 1.261719 52.523438 61.722656 52.523438 136.296875 C 52.523438 210.875 112.980469 271.332031 187.558594 271.332031 C 262.132812 271.332031 322.589844 210.875 322.589844 136.296875 C 322.589844 61.722656 262.132812 1.261719 187.558594 1.261719 Z M 187.558594 243.203125 C 128.515625 243.203125 80.652344 195.339844 80.652344 136.300781 C 80.652344 77.257812 128.515625 29.398438 187.558594 29.398438 C 246.597656 29.398438 294.457031 77.257812 294.457031 136.300781 C 294.457031 195.339844 246.597656 243.203125 187.558594 243.203125 Z M 187.558594 243.203125 " fill-opacity="1" fill-rule="nonzero"/></g><path stroke-linecap="butt" transform="matrix(0, 0.75, -0.75, 0, 200.323571, 19.416193)" fill="none" stroke-linejoin="miter" d="M 0.0023675 16.999137 L 474.111774 16.999137 " stroke="#000000" stroke-width="34" stroke-opacity="1" stroke-miterlimit="4"/><path stroke-linecap="butt" transform="matrix(0, 0.75, -0.75, 0, 80.118201, 130.591148)" fill="none" stroke-linejoin="miter" d="M -0.0017393 18.501352 L 325.883699 18.501352 " stroke="#000000" stroke-width="37" stroke-opacity="1" stroke-miterlimit="4"/><g clip-path="url(#c7b823f9bc)"><path fill="#ffffff" d="M 80.230469 130.589844 L 174.761719 130.589844 L 174.761719 375.042969 L 80.230469 375.042969 Z M 80.230469 130.589844 " fill-opacity="1" fill-rule="nonzero"/></g><g clip-path="url(#0f3d521db9)"><path fill="#000000" d="M 206.859375 243.761719 L 190.0625 243.761719 C 189.574219 243.761719 189.101562 243.671875 188.648438 243.484375 C 188.195312 243.296875 187.796875 243.03125 187.449219 242.683594 C 187.105469 242.339844 186.839844 241.9375 186.652344 241.488281 C 186.464844 241.035156 186.375 240.5625 186.375 240.074219 L 186.375 32.339844 C 186.375 31.851562 186.464844 31.378906 186.652344 30.929688 C 186.839844 30.476562 187.105469 30.074219 187.449219 29.730469 C 187.796875 29.382812 188.195312 29.117188 188.648438 28.929688 C 189.101562 28.746094 189.574219 28.652344 190.0625 28.652344 L 206.859375 28.652344 C 208.617188 28.652344 210.375 28.695312 212.132812 28.785156 C 213.890625 28.871094 215.644531 29 217.398438 29.171875 C 219.148438 29.34375 220.894531 29.558594 222.636719 29.816406 C 224.375 30.078125 226.109375 30.378906 227.835938 30.71875 C 229.5625 31.0625 231.277344 31.449219 232.984375 31.878906 C 234.691406 32.304688 236.386719 32.773438 238.070312 33.285156 C 239.757812 33.796875 241.425781 34.347656 243.082031 34.941406 C 244.742188 35.535156 246.382812 36.167969 248.007812 36.839844 C 249.632812 37.515625 251.242188 38.226562 252.832031 38.980469 C 254.421875 39.734375 255.996094 40.523438 257.546875 41.355469 C 259.097656 42.183594 260.628906 43.050781 262.140625 43.957031 C 263.648438 44.859375 265.136719 45.800781 266.597656 46.78125 C 268.0625 47.757812 269.5 48.769531 270.914062 49.820312 C 272.328125 50.867188 273.714844 51.949219 275.074219 53.066406 C 276.433594 54.183594 277.765625 55.332031 279.070312 56.515625 C 280.375 57.699219 281.648438 58.910156 282.894531 60.15625 C 284.136719 61.398438 285.351562 62.675781 286.53125 63.980469 C 287.714844 65.28125 288.863281 66.617188 289.980469 67.976562 C 291.097656 69.335938 292.179688 70.722656 293.226562 72.136719 C 294.273438 73.550781 295.289062 74.992188 296.265625 76.453125 C 297.242188 77.917969 298.183594 79.402344 299.089844 80.914062 C 299.996094 82.421875 300.859375 83.953125 301.691406 85.507812 C 302.519531 87.058594 303.3125 88.632812 304.0625 90.222656 C 304.816406 91.8125 305.527344 93.421875 306.203125 95.046875 C 306.875 96.675781 307.507812 98.316406 308.101562 99.972656 C 308.695312 101.632812 309.246094 103.300781 309.757812 104.984375 C 310.269531 106.671875 310.738281 108.367188 311.164062 110.074219 C 311.59375 111.78125 311.976562 113.5 312.320312 115.226562 C 312.664062 116.949219 312.964844 118.683594 313.222656 120.425781 C 313.480469 122.167969 313.699219 123.914062 313.871094 125.664062 C 314.042969 127.417969 314.171875 129.171875 314.257812 130.929688 C 314.34375 132.6875 314.386719 134.445312 314.386719 136.207031 C 314.386719 137.96875 314.34375 139.726562 314.257812 141.484375 C 314.171875 143.242188 314.042969 144.996094 313.871094 146.75 C 313.699219 148.5 313.480469 150.246094 313.222656 151.988281 C 312.964844 153.730469 312.664062 155.464844 312.320312 157.191406 C 311.976562 158.917969 311.59375 160.632812 311.164062 162.339844 C 310.738281 164.046875 310.269531 165.742188 309.757812 167.429688 C 309.246094 169.113281 308.695312 170.785156 308.101562 172.441406 C 307.507812 174.097656 306.875 175.738281 306.203125 177.367188 C 305.527344 178.992188 304.816406 180.601562 304.0625 182.191406 C 303.3125 183.785156 302.519531 185.355469 301.691406 186.90625 C 300.859375 188.460938 299.996094 189.992188 299.089844 191.5 C 298.183594 193.011719 297.242188 194.496094 296.265625 195.960938 C 295.289062 197.425781 294.273438 198.863281 293.226562 200.277344 C 292.179688 201.691406 291.097656 203.078125 289.980469 204.4375 C 288.863281 205.800781 287.714844 207.132812 286.53125 208.433594 C 285.351562 209.738281 284.136719 211.015625 282.894531 212.257812 C 281.648438 213.503906 280.375 214.71875 279.070312 215.898438 C 277.765625 217.082031 276.433594 218.230469 275.074219 219.347656 C 273.714844 220.464844 272.328125 221.546875 270.914062 222.59375 C 269.5 223.644531 268.0625 224.65625 266.597656 225.632812 C 265.136719 226.613281 263.648438 227.554688 262.140625 228.457031 C 260.628906 229.363281 259.097656 230.230469 257.546875 231.0625 C 255.996094 231.890625 254.421875 232.679688 252.832031 233.433594 C 251.242188 234.1875 249.632812 234.898438 248.007812 235.574219 C 246.382812 236.246094 244.742188 236.878906 243.082031 237.472656 C 241.425781 238.066406 239.757812 238.617188 238.070312 239.128906 C 236.386719 239.640625 234.691406 240.109375 232.984375 240.539062 C 231.277344 240.964844 229.5625 241.351562 227.835938 241.695312 C 226.109375 242.039062 224.375 242.339844 222.636719 242.597656 C 220.894531 242.855469 219.148438 243.070312 217.398438 243.242188 C 215.644531 243.414062 213.890625 243.542969 212.132812 243.632812 C 210.375 243.71875 208.617188 243.761719 206.859375 243.761719 Z M 206.859375 243.761719 " fill-opacity="1" fill-rule="nonzero"/></g><g fill="#000000" fill-opacity="1"><g transform="translate(150.59119, 373.096287)"><g><path d="M -45.828125 -15.40625 C -45.828125 -15.789062 -45.773438 -16.554688 -45.671875 -17.703125 C -45.578125 -18.847656 -45.3125 -20.15625 -44.875 -21.625 C -44.4375 -23.09375 -43.726562 -24.53125 -42.75 -25.9375 C -41.78125 -27.351562 -40.4375 -28.53125 -38.71875 -29.46875 C -37 -30.40625 -34.785156 -30.875 -32.078125 -30.875 C -29.828125 -30.875 -27.925781 -30.53125 -26.375 -29.84375 C -24.832031 -29.15625 -23.5625 -28.25 -22.5625 -27.125 C -21.570312 -26 -20.789062 -24.804688 -20.21875 -23.546875 C -19.644531 -22.285156 -19.234375 -21.070312 -18.984375 -19.90625 C -18.734375 -18.738281 -18.578125 -17.742188 -18.515625 -16.921875 C -18.460938 -16.097656 -18.4375 -15.59375 -18.4375 -15.40625 L -18.4375 -8.59375 L -0.515625 -8.59375 C -0.171875 -8.59375 0 -8.398438 0 -8.015625 L 0 -0.578125 C 0 -0.191406 -0.171875 0 -0.515625 0 L -26.921875 0 L -26.921875 -15.40625 C -26.921875 -15.707031 -26.957031 -16.210938 -27.03125 -16.921875 C -27.113281 -17.628906 -27.304688 -18.394531 -27.609375 -19.21875 C -27.910156 -20.039062 -28.414062 -20.738281 -29.125 -21.3125 C -29.832031 -21.882812 -30.816406 -22.171875 -32.078125 -22.171875 C -33.335938 -22.171875 -34.328125 -21.875 -35.046875 -21.28125 C -35.773438 -20.6875 -36.300781 -19.976562 -36.625 -19.15625 C -36.957031 -18.332031 -37.171875 -17.566406 -37.265625 -16.859375 C -37.359375 -16.160156 -37.40625 -15.675781 -37.40625 -15.40625 L -37.40625 0 L -45.3125 0 C -45.65625 0 -45.828125 -0.191406 -45.828125 -0.578125 Z M -45.828125 -15.40625 "/></g></g></g><g fill="#000000" fill-opacity="1"><g transform="translate(150.59119, 340.673627)"><g><path d="M -0.75 -31.28125 C -0.550781 -31.351562 -0.375 -31.34375 -0.21875 -31.25 C -0.0703125 -31.15625 0 -30.992188 0 -30.765625 L 0 -22.5625 C 0 -22.257812 -0.113281 -22.070312 -0.34375 -22 L -18.5 -13.640625 L -18.5 -8.703125 L -0.515625 -8.703125 C -0.171875 -8.703125 0 -8.492188 0 -8.078125 L 0 -0.578125 C 0 -0.191406 -0.171875 0 -0.515625 0 L -26.921875 0 L -26.921875 -15.40625 C -26.921875 -15.863281 -26.957031 -16.472656 -27.03125 -17.234375 C -27.113281 -18.003906 -27.328125 -18.757812 -27.671875 -19.5 C -28.015625 -20.25 -28.535156 -20.878906 -29.234375 -21.390625 C -29.941406 -21.910156 -30.925781 -22.171875 -32.1875 -22.171875 C -33.445312 -22.171875 -34.441406 -21.890625 -35.171875 -21.328125 C -35.898438 -20.773438 -36.425781 -20.097656 -36.75 -19.296875 C -37.070312 -18.492188 -37.28125 -17.726562 -37.375 -17 C -37.46875 -16.28125 -37.515625 -15.75 -37.515625 -15.40625 L -37.515625 0 L -45.3125 0 C -45.65625 0 -45.828125 -0.191406 -45.828125 -0.578125 L -45.828125 -15.40625 C -45.828125 -15.9375 -45.773438 -16.796875 -45.671875 -17.984375 C -45.578125 -19.171875 -45.320312 -20.5 -44.90625 -21.96875 C -44.488281 -23.4375 -43.800781 -24.847656 -42.84375 -26.203125 C -41.894531 -27.554688 -40.5625 -28.671875 -38.84375 -29.546875 C -37.125 -30.429688 -34.90625 -30.875 -32.1875 -30.875 C -29.863281 -30.875 -27.890625 -30.488281 -26.265625 -29.71875 C -24.640625 -28.957031 -23.3125 -27.9375 -22.28125 -26.65625 C -21.25 -25.382812 -20.445312 -23.984375 -19.875 -22.453125 C -16.625 -23.898438 -13.414062 -25.378906 -10.25 -26.890625 C -7.082031 -28.398438 -3.914062 -29.863281 -0.75 -31.28125 Z M -0.75 -31.28125 "/></g></g></g><g fill="#000000" fill-opacity="1"><g transform="translate(150.59119, 307.735403)"><g><path d="M -22.796875 -26.34375 C -21.609375 -26.34375 -20.59375 -25.929688 -19.75 -25.109375 C -18.914062 -24.296875 -18.5 -23.273438 -18.5 -22.046875 C -18.5 -20.867188 -18.914062 -19.859375 -19.75 -19.015625 C -20.59375 -18.171875 -21.609375 -17.75 -22.796875 -17.75 C -24.015625 -17.75 -25.046875 -18.171875 -25.890625 -19.015625 C -26.734375 -19.859375 -27.15625 -20.867188 -27.15625 -22.046875 C -27.15625 -23.273438 -26.734375 -24.296875 -25.890625 -25.109375 C -25.046875 -25.929688 -24.015625 -26.34375 -22.796875 -26.34375 Z M -22.96875 -44.109375 C -20.101562 -44.109375 -17.304688 -43.648438 -14.578125 -42.734375 C -11.847656 -41.816406 -9.382812 -40.441406 -7.1875 -38.609375 C -4.988281 -36.773438 -3.238281 -34.484375 -1.9375 -31.734375 C -0.644531 -28.984375 0 -25.773438 0 -22.109375 C 0 -18.398438 -0.644531 -15.160156 -1.9375 -12.390625 C -3.238281 -9.628906 -4.988281 -7.332031 -7.1875 -5.5 C -9.382812 -3.664062 -11.847656 -2.289062 -14.578125 -1.375 C -17.304688 -0.457031 -20.101562 0 -22.96875 0 C -25.832031 0 -28.617188 -0.457031 -31.328125 -1.375 C -34.046875 -2.289062 -36.492188 -3.664062 -38.671875 -5.5 C -40.847656 -7.332031 -42.582031 -9.628906 -43.875 -12.390625 C -45.175781 -15.160156 -45.828125 -18.398438 -45.828125 -22.109375 C -45.828125 -25.773438 -45.175781 -28.984375 -43.875 -31.734375 C -42.582031 -34.484375 -40.847656 -36.773438 -38.671875 -38.609375 C -36.492188 -40.441406 -34.046875 -41.816406 -31.328125 -42.734375 C -28.617188 -43.648438 -25.832031 -44.109375 -22.96875 -44.109375 Z M -22.796875 -35.515625 C -24.671875 -35.515625 -26.492188 -35.226562 -28.265625 -34.65625 C -30.046875 -34.082031 -31.648438 -33.238281 -33.078125 -32.125 C -34.515625 -31.019531 -35.648438 -29.628906 -36.484375 -27.953125 C -37.328125 -26.273438 -37.75 -24.328125 -37.75 -22.109375 C -37.75 -19.859375 -37.328125 -17.890625 -36.484375 -16.203125 C -35.648438 -14.523438 -34.515625 -13.125 -33.078125 -12 C -31.648438 -10.875 -30.046875 -10.035156 -28.265625 -9.484375 C -26.492188 -8.929688 -24.671875 -8.65625 -22.796875 -8.65625 C -20.960938 -8.65625 -19.164062 -8.929688 -17.40625 -9.484375 C -15.65625 -10.035156 -14.070312 -10.875 -12.65625 -12 C -11.25 -13.125 -10.125 -14.523438 -9.28125 -16.203125 C -8.4375 -17.890625 -8.015625 -19.859375 -8.015625 -22.109375 C -8.015625 -24.328125 -8.4375 -26.273438 -9.28125 -27.953125 C -10.125 -29.628906 -11.25 -31.019531 -12.65625 -32.125 C -14.070312 -33.238281 -15.65625 -34.082031 -17.40625 -34.65625 C -19.164062 -35.226562 -20.960938 -35.515625 -22.796875 -35.515625 Z M -22.796875 -35.515625 "/></g></g></g><g fill="#000000" fill-opacity="1"><g transform="translate(150.59119, 261.450044)"><g><path d="M -37.984375 -3.84375 C -37.984375 -3.414062 -38.15625 -3.203125 -38.5 -3.203125 L -45.3125 -3.203125 C -45.65625 -3.203125 -45.828125 -3.414062 -45.828125 -3.84375 L -45.828125 -19.421875 C -45.828125 -19.796875 -45.65625 -19.984375 -45.3125 -19.984375 L -37.984375 -19.984375 Z M -30.125 -11.28125 L -30.125 -19.984375 L -13.515625 -19.984375 C -11.265625 -19.984375 -9.363281 -19.648438 -7.8125 -18.984375 C -6.269531 -18.316406 -5 -17.46875 -4 -16.4375 C -3.007812 -15.40625 -2.238281 -14.304688 -1.6875 -13.140625 C -1.132812 -11.984375 -0.742188 -10.890625 -0.515625 -9.859375 C -0.285156 -8.828125 -0.140625 -7.972656 -0.078125 -7.296875 C -0.0234375 -6.628906 0 -6.296875 0 -6.296875 L 0 -0.625 C 0 -0.207031 -0.171875 0 -0.515625 0 L -7.96875 0 C -8.3125 0 -8.484375 -0.207031 -8.484375 -0.625 L -8.484375 -6.296875 C -8.484375 -7.554688 -8.738281 -8.519531 -9.25 -9.1875 C -9.769531 -9.863281 -10.351562 -10.351562 -11 -10.65625 C -11.644531 -10.957031 -12.222656 -11.132812 -12.734375 -11.1875 C -13.253906 -11.25 -13.515625 -11.28125 -13.515625 -11.28125 Z M -30.125 -11.28125 "/></g></g></g><g fill="#000000" fill-opacity="1"><g transform="translate(150.59119, 240.42687)"><g><path d="M -8.53125 -21.765625 L 0 -21.765625 L 0 -0.625 C 0 -0.207031 -0.171875 0 -0.515625 0 L -45.3125 0 C -45.65625 0 -45.828125 -0.207031 -45.828125 -0.625 L -45.828125 -21.765625 L -37.515625 -21.765625 L -37.515625 -8.765625 L -27.15625 -8.765625 L -27.15625 -26.75 C -27.15625 -27.164062 -26.984375 -27.375 -26.640625 -27.375 L -19.359375 -27.375 C -19.015625 -27.375 -18.84375 -27.164062 -18.84375 -26.75 L -18.84375 -8.765625 L -8.53125 -8.765625 Z M -8.53125 -21.765625 "/></g></g></g><g fill="#000000" fill-opacity="1"><g transform="translate(150.59119, 211.670376)"><g><path d="M -45.828125 -41.765625 C -45.828125 -42.066406 -45.726562 -42.273438 -45.53125 -42.390625 C -45.34375 -42.503906 -45.15625 -42.484375 -44.96875 -42.328125 L -22.90625 -26.515625 C -20.582031 -28.203125 -18.234375 -29.894531 -15.859375 -31.59375 C -13.492188 -33.289062 -11.128906 -34.976562 -8.765625 -36.65625 L -8.765625 -26 L -15.46875 -21.25 L -0.171875 -10.3125 C -0.128906 -10.269531 -0.0859375 -10.191406 -0.046875 -10.078125 C -0.015625 -9.960938 0 -9.867188 0 -9.796875 L 0 -0.625 C 0 -0.363281 -0.09375 -0.179688 -0.28125 -0.078125 C -0.476562 0.015625 -0.671875 -0.015625 -0.859375 -0.171875 L -22.90625 -15.859375 C -25.238281 -14.179688 -27.585938 -12.503906 -29.953125 -10.828125 C -32.328125 -9.148438 -34.695312 -7.46875 -37.0625 -5.78125 L -37.0625 -16.4375 L -30.359375 -21.25 L -45.65625 -32.078125 C -45.726562 -32.117188 -45.773438 -32.203125 -45.796875 -32.328125 C -45.816406 -32.460938 -45.828125 -32.550781 -45.828125 -32.59375 Z M -45.828125 -41.765625 "/></g></g></g><g fill="#000000" fill-opacity="1"><g transform="translate(150.59119, 167.103523)"><g><path d="M -32.1875 -22.34375 C -33.5625 -22.34375 -34.617188 -22 -35.359375 -21.3125 C -36.109375 -20.625 -36.644531 -19.835938 -36.96875 -18.953125 C -37.300781 -18.078125 -37.492188 -17.296875 -37.546875 -16.609375 C -37.609375 -15.921875 -37.640625 -15.578125 -37.640625 -15.578125 L -37.640625 -8.703125 L -27.15625 -8.703125 L -27.15625 -15.578125 C -27.15625 -15.578125 -27.179688 -15.921875 -27.234375 -16.609375 C -27.296875 -17.296875 -27.476562 -18.078125 -27.78125 -18.953125 C -28.082031 -19.835938 -28.578125 -20.625 -29.265625 -21.3125 C -29.953125 -22 -30.925781 -22.34375 -32.1875 -22.34375 Z M -32.703125 -31.109375 C -30.035156 -31.109375 -27.914062 -30.484375 -26.34375 -29.234375 C -24.78125 -27.992188 -23.632812 -26.5 -22.90625 -24.75 C -22.300781 -26.582031 -21.472656 -27.972656 -20.421875 -28.921875 C -19.367188 -29.878906 -18.296875 -30.554688 -17.203125 -30.953125 C -16.117188 -31.359375 -15.203125 -31.585938 -14.453125 -31.640625 C -13.710938 -31.703125 -13.34375 -31.734375 -13.34375 -31.734375 C -10.789062 -31.734375 -8.691406 -31.285156 -7.046875 -30.390625 C -5.398438 -29.492188 -4.097656 -28.347656 -3.140625 -26.953125 C -2.191406 -25.554688 -1.488281 -24.101562 -1.03125 -22.59375 C -0.570312 -21.082031 -0.285156 -19.6875 -0.171875 -18.40625 C -0.0546875 -17.132812 0 -16.191406 0 -15.578125 L 0 -8.765625 L -8.359375 -8.765625 L -8.359375 -15.578125 C -8.359375 -16.535156 -8.484375 -17.585938 -8.734375 -18.734375 C -8.984375 -19.878906 -9.488281 -20.867188 -10.25 -21.703125 C -11.019531 -22.546875 -12.128906 -22.96875 -13.578125 -22.96875 C -14.640625 -22.96875 -15.503906 -22.71875 -16.171875 -22.21875 C -16.847656 -21.726562 -17.359375 -21.117188 -17.703125 -20.390625 C -18.046875 -19.660156 -18.273438 -18.921875 -18.390625 -18.171875 C -18.503906 -17.429688 -18.566406 -16.8125 -18.578125 -16.3125 C -18.597656 -15.820312 -18.609375 -15.578125 -18.609375 -15.578125 L -18.609375 0 L -45.3125 0 C -45.65625 0 -45.828125 -0.207031 -45.828125 -0.625 L -45.828125 -15.578125 C -45.828125 -15.578125 -45.804688 -15.945312 -45.765625 -16.6875 C -45.722656 -17.4375 -45.597656 -18.398438 -45.390625 -19.578125 C -45.179688 -20.765625 -44.816406 -22.015625 -44.296875 -23.328125 C -43.785156 -24.648438 -43.050781 -25.90625 -42.09375 -27.09375 C -41.144531 -28.28125 -39.90625 -29.242188 -38.375 -29.984375 C -36.851562 -30.734375 -34.960938 -31.109375 -32.703125 -31.109375 Z M -32.703125 -31.109375 "/></g></g></g><g fill="#000000" fill-opacity="1"><g transform="translate(150.59119, 133.764313)"><g><path d="M -7.84375 -18.671875 C -7.84375 -19.085938 -7.671875 -19.296875 -7.328125 -19.296875 L -0.515625 -19.296875 C -0.171875 -19.296875 0 -19.085938 0 -18.671875 L 0 -0.625 C 0 -0.207031 -0.171875 0 -0.515625 0 L -7.328125 0 C -7.671875 0 -7.84375 -0.207031 -7.84375 -0.625 L -7.84375 -5.328125 L -45.828125 -5.328125 L -45.828125 -14.09375 L -7.84375 -14.09375 Z M -7.84375 -18.671875 "/></g></g></g><g fill="#000000" fill-opacity="1"><g transform="translate(150.59119, 113.485815)"><g><path d="M -22.796875 -26.34375 C -21.609375 -26.34375 -20.59375 -25.929688 -19.75 -25.109375 C -18.914062 -24.296875 -18.5 -23.273438 -18.5 -22.046875 C -18.5 -20.867188 -18.914062 -19.859375 -19.75 -19.015625 C -20.59375 -18.171875 -21.609375 -17.75 -22.796875 -17.75 C -24.015625 -17.75 -25.046875 -18.171875 -25.890625 -19.015625 C -26.734375 -19.859375 -27.15625 -20.867188 -27.15625 -22.046875 C -27.15625 -23.273438 -26.734375 -24.296875 -25.890625 -25.109375 C -25.046875 -25.929688 -24.015625 -26.34375 -22.796875 -26.34375 Z M -22.96875 -44.109375 C -20.101562 -44.109375 -17.304688 -43.648438 -14.578125 -42.734375 C -11.847656 -41.816406 -9.382812 -40.441406 -7.1875 -38.609375 C -4.988281 -36.773438 -3.238281 -34.484375 -1.9375 -31.734375 C -0.644531 -28.984375 0 -25.773438 0 -22.109375 C 0 -18.398438 -0.644531 -15.160156 -1.9375 -12.390625 C -3.238281 -9.628906 -4.988281 -7.332031 -7.1875 -5.5 C -9.382812 -3.664062 -11.847656 -2.289062 -14.578125 -1.375 C -17.304688 -0.457031 -20.101562 0 -22.96875 0 C -25.832031 0 -28.617188 -0.457031 -31.328125 -1.375 C -34.046875 -2.289062 -36.492188 -3.664062 -38.671875 -5.5 C -40.847656 -7.332031 -42.582031 -9.628906 -43.875 -12.390625 C -45.175781 -15.160156 -45.828125 -18.398438 -45.828125 -22.109375 C -45.828125 -25.773438 -45.175781 -28.984375 -43.875 -31.734375 C -42.582031 -34.484375 -40.847656 -36.773438 -38.671875 -38.609375 C -36.492188 -40.441406 -34.046875 -41.816406 -31.328125 -42.734375 C -28.617188 -43.648438 -25.832031 -44.109375 -22.96875 -44.109375 Z M -22.796875 -35.515625 C -24.671875 -35.515625 -26.492188 -35.226562 -28.265625 -34.65625 C -30.046875 -34.082031 -31.648438 -33.238281 -33.078125 -32.125 C -34.515625 -31.019531 -35.648438 -29.628906 -36.484375 -27.953125 C -37.328125 -26.273438 -37.75 -24.328125 -37.75 -22.109375 C -37.75 -19.859375 -37.328125 -17.890625 -36.484375 -16.203125 C -35.648438 -14.523438 -34.515625 -13.125 -33.078125 -12 C -31.648438 -10.875 -30.046875 -10.035156 -28.265625 -9.484375 C -26.492188 -8.929688 -24.671875 -8.65625 -22.796875 -8.65625 C -20.960938 -8.65625 -19.164062 -8.929688 -17.40625 -9.484375 C -15.65625 -10.035156 -14.070312 -10.875 -12.65625 -12 C -11.25 -13.125 -10.125 -14.523438 -9.28125 -16.203125 C -8.4375 -17.890625 -8.015625 -19.859375 -8.015625 -22.109375 C -8.015625 -24.328125 -8.4375 -26.273438 -9.28125 -27.953125 C -10.125 -29.628906 -11.25 -31.019531 -12.65625 -32.125 C -14.070312 -33.238281 -15.65625 -34.082031 -17.40625 -34.65625 C -19.164062 -35.226562 -20.960938 -35.515625 -22.796875 -35.515625 Z M -22.796875 -35.515625 "/></g></g></g><g fill="#ffffff" fill-opacity="1"><g transform="translate(192.322322, 215.359815)"><g><path d="M 93.359375 -50.09375 C 93.203125 -48.570312 93.125 -46.75 93.125 -44.625 C 93.125 -42.5 93.125 -40.144531 93.125 -37.5625 C 93.28125 -28.613281 90.320312 -20.492188 84.25 -13.203125 C 80.90625 -9.253906 77.5625 -6.332031 74.21875 -4.4375 C 70.882812 -2.539062 66.863281 -1.25 62.15625 -0.5625 C 57.445312 0.113281 51.523438 0.414062 44.390625 0.34375 C 37.265625 0.269531 28.3125 0.15625 17.53125 0 C 15.101562 0 13.28125 -0.609375 12.0625 -1.828125 C 11.300781 -2.734375 10.84375 -4.132812 10.6875 -6.03125 C 10.539062 -7.925781 10.46875 -10.773438 10.46875 -14.578125 L 10.46875 -71.5 L 1.359375 -76.734375 C 0.148438 -77.492188 -0.453125 -78.554688 -0.453125 -79.921875 C -0.453125 -81.429688 0.148438 -82.566406 1.359375 -83.328125 L 10.46875 -88.578125 L 10.46875 -148.6875 C 10.46875 -154.300781 10.925781 -157.5625 11.84375 -158.46875 C 13.050781 -159.6875 15.285156 -160.296875 18.546875 -160.296875 C 21.816406 -160.296875 27.78125 -160.21875 36.4375 -160.0625 C 39.46875 -160.0625 42.160156 -160.0625 44.515625 -160.0625 C 46.867188 -160.0625 48.957031 -160.140625 50.78125 -160.296875 C 61.25 -160.441406 70.125 -157.476562 77.40625 -151.40625 C 81.050781 -148.21875 84.050781 -144.082031 86.40625 -139 C 88.757812 -133.914062 90.273438 -128.453125 90.953125 -122.609375 C 91.640625 -116.765625 91.375 -110.921875 90.15625 -105.078125 C 88.945312 -99.234375 86.597656 -94.035156 83.109375 -89.484375 C 81.585938 -87.359375 80.828125 -85.609375 80.828125 -84.234375 C 80.828125 -82.867188 81.738281 -81.125 83.5625 -79 C 90.394531 -71.414062 93.660156 -61.78125 93.359375 -50.09375 Z M 39.625 -125.90625 C 39.164062 -123.175781 38.859375 -119.953125 38.703125 -116.234375 C 38.554688 -112.515625 38.820312 -109.019531 39.5 -105.75 C 40.1875 -102.488281 41.550781 -100.023438 43.59375 -98.359375 C 45.644531 -96.691406 48.644531 -96.539062 52.59375 -97.90625 C 55.476562 -98.8125 57.601562 -100.40625 58.96875 -102.6875 C 61.25 -106.78125 62.390625 -111.410156 62.390625 -116.578125 L 61.015625 -123.40625 C 59.046875 -129.320312 55.101562 -132.507812 49.1875 -132.96875 C 46.300781 -133.269531 44.097656 -132.890625 42.578125 -131.828125 C 41.054688 -130.765625 40.070312 -128.789062 39.625 -125.90625 Z M 60.796875 -34.375 C 65.191406 -42.726562 65.722656 -51.382812 62.390625 -60.34375 C 61.171875 -63.832031 58.703125 -66.640625 54.984375 -68.765625 C 51.265625 -70.890625 47.8125 -71.191406 44.625 -69.671875 C 42.65625 -68.609375 41.289062 -67.394531 40.53125 -66.03125 C 39.769531 -64.664062 39.390625 -62.613281 39.390625 -59.875 C 39.390625 -57.144531 39.390625 -53.203125 39.390625 -48.046875 C 39.390625 -42.429688 39.390625 -38.179688 39.390625 -35.296875 C 39.390625 -32.410156 39.878906 -30.394531 40.859375 -29.25 C 41.847656 -28.113281 43.632812 -27.472656 46.21875 -27.328125 C 53.195312 -27.171875 58.054688 -29.519531 60.796875 -34.375 Z M 60.796875 -34.375 "/></g></g></g></svg>