<svg version="1.0" preserveAspectRatio="xMidYMid meet" viewBox="0 163.9499960652 372.75 61.499998524000006" zoomAndPan="magnify" xmlns:xlink="http://www.w3.org/1999/xlink" xmlns="http://www.w3.org/2000/svg" style="max-height: 500px" width="372.75" height="61.499998524000006"><defs><g/></defs><g fill-opacity="1" fill="#ffffff"><g transform="translate(3.451062, 221.342608)"><g><path d="M 18.546875 -55.15625 C 19.003906 -55.15625 19.921875 -55.097656 21.296875 -54.984375 C 22.679688 -54.867188 24.253906 -54.546875 26.015625 -54.015625 C 27.785156 -53.484375 29.519531 -52.628906 31.21875 -51.453125 C 32.925781 -50.285156 34.34375 -48.664062 35.46875 -46.59375 C 36.59375 -44.53125 37.15625 -41.867188 37.15625 -38.609375 C 37.15625 -35.890625 36.738281 -33.597656 35.90625 -31.734375 C 35.082031 -29.878906 33.992188 -28.351562 32.640625 -27.15625 C 31.285156 -25.96875 29.847656 -25.023438 28.328125 -24.328125 C 26.816406 -23.640625 25.359375 -23.144531 23.953125 -22.84375 C 22.554688 -22.550781 21.363281 -22.367188 20.375 -22.296875 C 19.382812 -22.234375 18.773438 -22.203125 18.546875 -22.203125 L 10.34375 -22.203125 L 10.34375 -0.625 C 10.34375 -0.207031 10.113281 0 9.65625 0 L 0.6875 0 C 0.226562 0 0 -0.207031 0 -0.625 L 0 -32.40625 L 18.546875 -32.40625 C 18.910156 -32.40625 19.515625 -32.445312 20.359375 -32.53125 C 21.210938 -32.625 22.132812 -32.851562 23.125 -33.21875 C 24.113281 -33.59375 24.953125 -34.203125 25.640625 -35.046875 C 26.328125 -35.898438 26.671875 -37.085938 26.671875 -38.609375 C 26.671875 -40.117188 26.316406 -41.3125 25.609375 -42.1875 C 24.898438 -43.0625 24.050781 -43.691406 23.0625 -44.078125 C 22.070312 -44.472656 21.148438 -44.726562 20.296875 -44.84375 C 19.453125 -44.957031 18.867188 -45.015625 18.546875 -45.015625 L 0 -45.015625 L 0 -54.53125 C 0 -54.945312 0.226562 -55.15625 0.6875 -55.15625 Z M 18.546875 -55.15625"/></g></g></g><g fill-opacity="1" fill="#ffffff"><g transform="translate(42.464478, 221.342608)"><g><path d="M 37.640625 -0.890625 C 37.734375 -0.660156 37.722656 -0.453125 37.609375 -0.265625 C 37.492188 -0.0859375 37.296875 0 37.015625 0 L 27.15625 0 C 26.789062 0 26.5625 -0.132812 26.46875 -0.40625 L 16.40625 -22.265625 L 10.484375 -22.265625 L 10.484375 -0.625 C 10.484375 -0.207031 10.226562 0 9.71875 0 L 0.6875 0 C 0.226562 0 0 -0.207031 0 -0.625 L 0 -32.40625 L 18.546875 -32.40625 C 19.097656 -32.40625 19.832031 -32.445312 20.75 -32.53125 C 21.664062 -32.625 22.570312 -32.878906 23.46875 -33.296875 C 24.363281 -33.710938 25.117188 -34.34375 25.734375 -35.1875 C 26.359375 -36.039062 26.671875 -37.226562 26.671875 -38.75 C 26.671875 -40.257812 26.335938 -41.453125 25.671875 -42.328125 C 25.003906 -43.203125 24.1875 -43.832031 23.21875 -44.21875 C 22.257812 -44.613281 21.34375 -44.867188 20.46875 -44.984375 C 19.601562 -45.097656 18.960938 -45.15625 18.546875 -45.15625 L 0 -45.15625 L 0 -54.53125 C 0 -54.945312 0.226562 -55.15625 0.6875 -55.15625 L 18.546875 -55.15625 C 19.191406 -55.15625 20.222656 -55.097656 21.640625 -54.984375 C 23.066406 -54.867188 24.664062 -54.554688 26.4375 -54.046875 C 28.207031 -53.535156 29.90625 -52.707031 31.53125 -51.5625 C 33.164062 -50.414062 34.507812 -48.804688 35.5625 -46.734375 C 36.625 -44.671875 37.15625 -42.007812 37.15625 -38.75 C 37.15625 -35.9375 36.695312 -33.550781 35.78125 -31.59375 C 34.863281 -29.644531 33.632812 -28.050781 32.09375 -26.8125 C 30.550781 -25.570312 28.863281 -24.609375 27.03125 -23.921875 C 28.769531 -20.015625 30.546875 -16.15625 32.359375 -12.34375 C 34.179688 -8.53125 35.941406 -4.710938 37.640625 -0.890625 Z M 37.640625 -0.890625"/></g></g></g><g fill-opacity="1" fill="#ffffff"><g transform="translate(82.098261, 221.342608)"><g><path d="M 31.71875 -27.4375 C 31.71875 -26.007812 31.222656 -24.789062 30.234375 -23.78125 C 29.242188 -22.769531 28.015625 -22.265625 26.546875 -22.265625 C 25.117188 -22.265625 23.898438 -22.769531 22.890625 -23.78125 C 21.878906 -24.789062 21.375 -26.007812 21.375 -27.4375 C 21.375 -28.90625 21.878906 -30.144531 22.890625 -31.15625 C 23.898438 -32.164062 25.117188 -32.671875 26.546875 -32.671875 C 28.015625 -32.671875 29.242188 -32.164062 30.234375 -31.15625 C 31.222656 -30.144531 31.71875 -28.90625 31.71875 -27.4375 Z M 53.078125 -27.640625 C 53.078125 -24.191406 52.523438 -20.820312 51.421875 -17.53125 C 50.316406 -14.25 48.660156 -11.285156 46.453125 -8.640625 C 44.253906 -6.003906 41.5 -3.90625 38.1875 -2.34375 C 34.882812 -0.78125 31.023438 0 26.609375 0 C 22.148438 0 18.253906 -0.78125 14.921875 -2.34375 C 11.585938 -3.90625 8.816406 -6.003906 6.609375 -8.640625 C 4.410156 -11.285156 2.757812 -14.25 1.65625 -17.53125 C 0.550781 -20.820312 0 -24.191406 0 -27.640625 C 0 -31.085938 0.550781 -34.441406 1.65625 -37.703125 C 2.757812 -40.972656 4.410156 -43.914062 6.609375 -46.53125 C 8.816406 -49.15625 11.585938 -51.25 14.921875 -52.8125 C 18.253906 -54.375 22.148438 -55.15625 26.609375 -55.15625 C 31.023438 -55.15625 34.882812 -54.375 38.1875 -52.8125 C 41.5 -51.25 44.253906 -49.15625 46.453125 -46.53125 C 48.660156 -43.914062 50.316406 -40.972656 51.421875 -37.703125 C 52.523438 -34.441406 53.078125 -31.085938 53.078125 -27.640625 Z M 42.734375 -27.4375 C 42.734375 -29.6875 42.390625 -31.878906 41.703125 -34.015625 C 41.015625 -36.148438 40.003906 -38.078125 38.671875 -39.796875 C 37.335938 -41.523438 35.660156 -42.894531 33.640625 -43.90625 C 31.617188 -44.925781 29.273438 -45.4375 26.609375 -45.4375 C 23.898438 -45.4375 21.53125 -44.925781 19.5 -43.90625 C 17.476562 -42.894531 15.789062 -41.523438 14.4375 -39.796875 C 13.082031 -38.078125 12.070312 -36.148438 11.40625 -34.015625 C 10.738281 -31.878906 10.40625 -29.6875 10.40625 -27.4375 C 10.40625 -25.226562 10.738281 -23.066406 11.40625 -20.953125 C 12.070312 -18.835938 13.082031 -16.929688 14.4375 -15.234375 C 15.789062 -13.535156 17.476562 -12.179688 19.5 -11.171875 C 21.53125 -10.160156 23.898438 -9.65625 26.609375 -9.65625 C 29.273438 -9.65625 31.617188 -10.160156 33.640625 -11.171875 C 35.660156 -12.179688 37.335938 -13.535156 38.671875 -15.234375 C 40.003906 -16.929688 41.015625 -18.835938 41.703125 -20.953125 C 42.390625 -23.066406 42.734375 -25.226562 42.734375 -27.4375 Z M 42.734375 -27.4375"/></g></g></g><g fill-opacity="1" fill="#ffffff"><g transform="translate(137.792332, 221.342608)"><g><path d="M 4.625 -45.703125 C 4.113281 -45.703125 3.859375 -45.910156 3.859375 -46.328125 L 3.859375 -54.53125 C 3.859375 -54.945312 4.113281 -55.15625 4.625 -55.15625 L 23.375 -55.15625 C 23.832031 -55.15625 24.0625 -54.945312 24.0625 -54.53125 L 24.0625 -45.703125 Z M 13.578125 -36.265625 L 24.0625 -36.265625 L 24.0625 -16.265625 C 24.0625 -13.554688 23.65625 -11.269531 22.84375 -9.40625 C 22.039062 -7.550781 21.019531 -6.023438 19.78125 -4.828125 C 18.539062 -3.628906 17.21875 -2.695312 15.8125 -2.03125 C 14.414062 -1.363281 13.097656 -0.890625 11.859375 -0.609375 C 10.617188 -0.335938 9.59375 -0.164062 8.78125 -0.09375 C 7.976562 -0.03125 7.578125 0 7.578125 0 L 0.765625 0 C 0.253906 0 0 -0.207031 0 -0.625 L 0 -9.578125 C 0 -9.992188 0.253906 -10.203125 0.765625 -10.203125 L 7.578125 -10.203125 C 9.097656 -10.203125 10.257812 -10.507812 11.0625 -11.125 C 11.863281 -11.75 12.445312 -12.453125 12.8125 -13.234375 C 13.1875 -14.015625 13.40625 -14.710938 13.46875 -15.328125 C 13.539062 -15.953125 13.578125 -16.265625 13.578125 -16.265625 Z M 13.578125 -36.265625"/></g></g></g><g fill-opacity="1" fill="#ffffff"><g transform="translate(163.089016, 221.342608)"><g><path d="M 26.203125 -10.265625 L 26.203125 0 L 0.765625 0 C 0.253906 0 0 -0.207031 0 -0.625 L 0 -54.53125 C 0 -54.945312 0.253906 -55.15625 0.765625 -55.15625 L 26.203125 -55.15625 L 26.203125 -45.15625 L 10.546875 -45.15625 L 10.546875 -32.671875 L 32.1875 -32.671875 C 32.695312 -32.671875 32.953125 -32.46875 32.953125 -32.0625 L 32.953125 -23.296875 C 32.953125 -22.890625 32.695312 -22.6875 32.1875 -22.6875 L 10.546875 -22.6875 L 10.546875 -10.265625 Z M 26.203125 -10.265625"/></g></g></g><g fill-opacity="1" fill="#ffffff"><g transform="translate(197.691021, 221.342608)"><g><path d="M 50.25 -55.15625 C 50.625 -55.15625 50.878906 -55.035156 51.015625 -54.796875 C 51.148438 -54.566406 51.125 -54.335938 50.9375 -54.109375 L 31.921875 -27.578125 C 33.941406 -24.773438 35.972656 -21.945312 38.015625 -19.09375 C 40.066406 -16.25 42.101562 -13.398438 44.125 -10.546875 L 31.296875 -10.546875 L 25.578125 -18.609375 L 12.40625 -0.203125 C 12.363281 -0.160156 12.269531 -0.113281 12.125 -0.0625 C 11.988281 -0.0195312 11.875 0 11.78125 0 L 0.765625 0 C 0.441406 0 0.222656 -0.113281 0.109375 -0.34375 C -0.00390625 -0.570312 0.0234375 -0.800781 0.203125 -1.03125 L 19.09375 -27.578125 C 17.070312 -30.378906 15.050781 -33.203125 13.03125 -36.046875 C 11.007812 -38.898438 8.988281 -41.753906 6.96875 -44.609375 L 19.78125 -44.609375 L 25.578125 -36.53125 L 38.609375 -54.9375 C 38.648438 -55.03125 38.75 -55.085938 38.90625 -55.109375 C 39.070312 -55.140625 39.175781 -55.15625 39.21875 -55.15625 Z M 50.25 -55.15625"/></g></g></g><g fill-opacity="1" fill="#ffffff"><g transform="translate(251.317255, 221.342608)"><g><path d="M 26.890625 -38.75 C 26.890625 -40.394531 26.472656 -41.664062 25.640625 -42.5625 C 24.816406 -43.457031 23.875 -44.097656 22.8125 -44.484375 C 21.757812 -44.878906 20.816406 -45.113281 19.984375 -45.1875 C 19.160156 -45.257812 18.75 -45.296875 18.75 -45.296875 L 10.484375 -45.296875 L 10.484375 -32.671875 L 18.75 -32.671875 C 18.75 -32.671875 19.160156 -32.707031 19.984375 -32.78125 C 20.816406 -32.851562 21.757812 -33.070312 22.8125 -33.4375 C 23.875 -33.800781 24.816406 -34.394531 25.640625 -35.21875 C 26.472656 -36.050781 26.890625 -37.226562 26.890625 -38.75 Z M 37.4375 -39.359375 C 37.4375 -36.140625 36.6875 -33.585938 35.1875 -31.703125 C 33.695312 -29.828125 31.894531 -28.453125 29.78125 -27.578125 C 31.988281 -26.835938 33.664062 -25.835938 34.8125 -24.578125 C 35.957031 -23.316406 36.769531 -22.03125 37.25 -20.71875 C 37.738281 -19.40625 38.015625 -18.300781 38.078125 -17.40625 C 38.148438 -16.507812 38.1875 -16.0625 38.1875 -16.0625 C 38.1875 -12.976562 37.644531 -10.445312 36.5625 -8.46875 C 35.488281 -6.5 34.113281 -4.9375 32.4375 -3.78125 C 30.757812 -2.632812 29.007812 -1.785156 27.1875 -1.234375 C 25.375 -0.679688 23.695312 -0.335938 22.15625 -0.203125 C 20.625 -0.0664062 19.488281 0 18.75 0 L 10.546875 0 L 10.546875 -10.0625 L 18.75 -10.0625 C 19.894531 -10.0625 21.15625 -10.210938 22.53125 -10.515625 C 23.914062 -10.816406 25.113281 -11.425781 26.125 -12.34375 C 27.132812 -13.257812 27.640625 -14.59375 27.640625 -16.34375 C 27.640625 -17.625 27.34375 -18.664062 26.75 -19.46875 C 26.15625 -20.28125 25.421875 -20.890625 24.546875 -21.296875 C 23.671875 -21.710938 22.785156 -21.988281 21.890625 -22.125 C 20.992188 -22.257812 20.242188 -22.335938 19.640625 -22.359375 C 19.046875 -22.390625 18.75 -22.40625 18.75 -22.40625 L 0 -22.40625 L 0 -54.53125 C 0 -54.945312 0.253906 -55.15625 0.765625 -55.15625 L 18.75 -55.15625 C 18.75 -55.15625 19.195312 -55.128906 20.09375 -55.078125 C 20.988281 -55.035156 22.148438 -54.882812 23.578125 -54.625 C 25.003906 -54.375 26.507812 -53.9375 28.09375 -53.3125 C 29.675781 -52.695312 31.179688 -51.816406 32.609375 -50.671875 C 34.035156 -49.523438 35.195312 -48.03125 36.09375 -46.1875 C 36.988281 -44.351562 37.4375 -42.078125 37.4375 -39.359375 Z M 37.4375 -39.359375"/></g></g></g><g fill-opacity="1" fill="#ffffff"><g transform="translate(291.433534, 221.342608)"><g><path d="M 22.46875 -9.4375 C 22.976562 -9.4375 23.234375 -9.234375 23.234375 -8.828125 L 23.234375 -0.625 C 23.234375 -0.207031 22.976562 0 22.46875 0 L 0.765625 0 C 0.253906 0 0 -0.207031 0 -0.625 L 0 -8.828125 C 0 -9.234375 0.253906 -9.4375 0.765625 -9.4375 L 6.40625 -9.4375 L 6.40625 -55.15625 L 16.953125 -55.15625 L 16.953125 -9.4375 Z M 22.46875 -9.4375"/></g></g></g><g fill-opacity="1" fill="#ffffff"><g transform="translate(315.834168, 221.342608)"><g><path d="M 31.71875 -27.4375 C 31.71875 -26.007812 31.222656 -24.789062 30.234375 -23.78125 C 29.242188 -22.769531 28.015625 -22.265625 26.546875 -22.265625 C 25.117188 -22.265625 23.898438 -22.769531 22.890625 -23.78125 C 21.878906 -24.789062 21.375 -26.007812 21.375 -27.4375 C 21.375 -28.90625 21.878906 -30.144531 22.890625 -31.15625 C 23.898438 -32.164062 25.117188 -32.671875 26.546875 -32.671875 C 28.015625 -32.671875 29.242188 -32.164062 30.234375 -31.15625 C 31.222656 -30.144531 31.71875 -28.90625 31.71875 -27.4375 Z M 53.078125 -27.640625 C 53.078125 -24.191406 52.523438 -20.820312 51.421875 -17.53125 C 50.316406 -14.25 48.660156 -11.285156 46.453125 -8.640625 C 44.253906 -6.003906 41.5 -3.90625 38.1875 -2.34375 C 34.882812 -0.78125 31.023438 0 26.609375 0 C 22.148438 0 18.253906 -0.78125 14.921875 -2.34375 C 11.585938 -3.90625 8.816406 -6.003906 6.609375 -8.640625 C 4.410156 -11.285156 2.757812 -14.25 1.65625 -17.53125 C 0.550781 -20.820312 0 -24.191406 0 -27.640625 C 0 -31.085938 0.550781 -34.441406 1.65625 -37.703125 C 2.757812 -40.972656 4.410156 -43.914062 6.609375 -46.53125 C 8.816406 -49.15625 11.585938 -51.25 14.921875 -52.8125 C 18.253906 -54.375 22.148438 -55.15625 26.609375 -55.15625 C 31.023438 -55.15625 34.882812 -54.375 38.1875 -52.8125 C 41.5 -51.25 44.253906 -49.15625 46.453125 -46.53125 C 48.660156 -43.914062 50.316406 -40.972656 51.421875 -37.703125 C 52.523438 -34.441406 53.078125 -31.085938 53.078125 -27.640625 Z M 42.734375 -27.4375 C 42.734375 -29.6875 42.390625 -31.878906 41.703125 -34.015625 C 41.015625 -36.148438 40.003906 -38.078125 38.671875 -39.796875 C 37.335938 -41.523438 35.660156 -42.894531 33.640625 -43.90625 C 31.617188 -44.925781 29.273438 -45.4375 26.609375 -45.4375 C 23.898438 -45.4375 21.53125 -44.925781 19.5 -43.90625 C 17.476562 -42.894531 15.789062 -41.523438 14.4375 -39.796875 C 13.082031 -38.078125 12.070312 -36.148438 11.40625 -34.015625 C 10.738281 -31.878906 10.40625 -29.6875 10.40625 -27.4375 C 10.40625 -25.226562 10.738281 -23.066406 11.40625 -20.953125 C 12.070312 -18.835938 13.082031 -16.929688 14.4375 -15.234375 C 15.789062 -13.535156 17.476562 -12.179688 19.5 -11.171875 C 21.53125 -10.160156 23.898438 -9.65625 26.609375 -9.65625 C 29.273438 -9.65625 31.617188 -10.160156 33.640625 -11.171875 C 35.660156 -12.179688 37.335938 -13.535156 38.671875 -15.234375 C 40.003906 -16.929688 41.015625 -18.835938 41.703125 -20.953125 C 42.390625 -23.066406 42.734375 -25.226562 42.734375 -27.4375 Z M 42.734375 -27.4375"/></g></g></g></svg>