<svg xmlns="http://www.w3.org/2000/svg" xmlns:xlink="http://www.w3.org/1999/xlink" width="500" zoomAndPan="magnify" viewBox="0 0 375 374.999991" height="500" preserveAspectRatio="xMidYMid meet" version="1.0"><defs><g/><clipPath id="572a1225c1"><path d="M 52.523438 1.261719 L 322.519531 1.261719 L 322.519531 271.261719 L 52.523438 271.261719 Z M 52.523438 1.261719 " clip-rule="nonzero"/></clipPath><clipPath id="febf09237b"><path d="M 80.230469 130.589844 L 174.761719 130.589844 L 174.761719 375 L 80.230469 375 Z M 80.230469 130.589844 " clip-rule="nonzero"/></clipPath><clipPath id="5828c2a22b"><path d="M 186.375 28.582031 L 313.875 28.582031 L 313.875 243.832031 L 186.375 243.832031 Z M 186.375 28.582031 " clip-rule="nonzero"/></clipPath></defs><rect x="-37.5" width="450" fill="#ffffff" y="-37.499999" height="449.999989" fill-opacity="1"/><rect x="-37.5" width="450" fill="#000000" y="-37.499999" height="449.999989" fill-opacity="1"/><g clip-path="url(#572a1225c1)"><path fill="#ffffff" d="M 187.609375 1.261719 C 113.003906 1.261719 52.523438 61.746094 52.523438 136.351562 C 52.523438 210.957031 113.003906 271.4375 187.609375 271.4375 C 262.214844 271.4375 322.695312 210.957031 322.695312 136.351562 C 322.695312 61.746094 262.214844 1.261719 187.609375 1.261719 Z M 187.609375 243.296875 C 128.542969 243.296875 80.664062 195.414062 80.664062 136.351562 C 80.664062 77.289062 128.542969 29.40625 187.609375 29.40625 C 246.671875 29.40625 294.554688 77.289062 294.554688 136.351562 C 294.554688 195.414062 246.671875 243.296875 187.609375 243.296875 Z M 187.609375 243.296875 " fill-opacity="1" fill-rule="nonzero"/></g><path stroke-linecap="butt" transform="matrix(0, 0.75, -0.75, 0, 200.323556, 19.41618)" fill="none" stroke-linejoin="miter" d="M 0.00238446 16.999118 L 474.111791 16.999118 " stroke="#ffffff" stroke-width="34" stroke-opacity="1" stroke-miterlimit="4"/><path stroke-linecap="butt" transform="matrix(0, 0.75, -0.75, 0, 80.118162, 130.591105)" fill="none" stroke-linejoin="miter" d="M -0.0016817 18.501301 L 325.883756 18.501301 " stroke="#ffffff" stroke-width="37" stroke-opacity="1" stroke-miterlimit="4"/><g clip-path="url(#febf09237b)"><path fill="#000000" d="M 80.230469 130.589844 L 174.761719 130.589844 L 174.761719 375.042969 L 80.230469 375.042969 Z M 80.230469 130.589844 " fill-opacity="1" fill-rule="nonzero"/></g><g clip-path="url(#5828c2a22b)"><path fill="#ffffff" d="M 206.730469 243.972656 L 189.914062 243.972656 C 189.425781 243.972656 188.953125 243.882812 188.5 243.695312 C 188.046875 243.507812 187.648438 243.242188 187.300781 242.894531 C 186.953125 242.546875 186.6875 242.148438 186.5 241.695312 C 186.3125 241.242188 186.222656 240.769531 186.222656 240.28125 L 186.222656 32.34375 C 186.222656 31.855469 186.3125 31.382812 186.5 30.929688 C 186.6875 30.476562 186.953125 30.078125 187.300781 29.730469 C 187.648438 29.382812 188.046875 29.117188 188.5 28.929688 C 188.953125 28.746094 189.425781 28.652344 189.914062 28.652344 L 206.730469 28.652344 C 208.492188 28.652344 210.253906 28.699219 212.011719 28.785156 C 213.773438 28.871094 215.527344 29 217.28125 29.171875 C 219.035156 29.34375 220.785156 29.5625 222.527344 29.820312 C 224.269531 30.078125 226.003906 30.378906 227.734375 30.722656 C 229.460938 31.066406 231.179688 31.453125 232.890625 31.878906 C 234.597656 32.308594 236.296875 32.777344 237.980469 33.289062 C 239.667969 33.800781 241.339844 34.355469 243 34.949219 C 244.65625 35.539062 246.300781 36.175781 247.929688 36.847656 C 249.558594 37.523438 251.167969 38.238281 252.761719 38.992188 C 254.351562 39.742188 255.925781 40.535156 257.480469 41.367188 C 259.035156 42.195312 260.566406 43.066406 262.078125 43.972656 C 263.589844 44.875 265.078125 45.820312 266.542969 46.796875 C 268.007812 47.777344 269.445312 48.789062 270.863281 49.839844 C 272.277344 50.890625 273.664062 51.972656 275.027344 53.089844 C 276.390625 54.210938 277.722656 55.359375 279.027344 56.542969 C 280.335938 57.726562 281.609375 58.941406 282.855469 60.1875 C 284.101562 61.433594 285.316406 62.707031 286.5 64.011719 C 287.683594 65.320312 288.832031 66.652344 289.949219 68.015625 C 291.070312 69.375 292.152344 70.765625 293.203125 72.179688 C 294.25 73.59375 295.265625 75.035156 296.246094 76.5 C 297.222656 77.964844 298.164062 79.453125 299.070312 80.964844 C 299.976562 82.476562 300.847656 84.007812 301.675781 85.5625 C 302.507812 87.117188 303.296875 88.691406 304.050781 90.28125 C 304.804688 91.875 305.519531 93.484375 306.195312 95.113281 C 306.867188 96.742188 307.5 98.382812 308.09375 100.042969 C 308.6875 101.703125 309.242188 103.375 309.753906 105.0625 C 310.265625 106.746094 310.734375 108.445312 311.160156 110.152344 C 311.589844 111.863281 311.976562 113.582031 312.320312 115.308594 C 312.664062 117.039062 312.964844 118.773438 313.222656 120.515625 C 313.480469 122.257812 313.699219 124.007812 313.871094 125.761719 C 314.042969 127.515625 314.171875 129.269531 314.257812 131.03125 C 314.34375 132.789062 314.386719 134.550781 314.386719 136.3125 C 314.386719 138.074219 314.34375 139.835938 314.257812 141.59375 C 314.171875 143.355469 314.042969 145.113281 313.871094 146.863281 C 313.699219 148.617188 313.480469 150.367188 313.222656 152.109375 C 312.964844 153.851562 312.664062 155.585938 312.320312 157.316406 C 311.976562 159.042969 311.589844 160.761719 311.160156 162.472656 C 310.734375 164.179688 310.265625 165.878906 309.753906 167.5625 C 309.242188 169.25 308.6875 170.921875 308.09375 172.582031 C 307.5 174.242188 306.867188 175.882812 306.195312 177.511719 C 305.519531 179.140625 304.804688 180.75 304.050781 182.34375 C 303.296875 183.933594 302.507812 185.507812 301.675781 187.0625 C 300.847656 188.617188 299.976562 190.148438 299.070312 191.660156 C 298.164062 193.171875 297.222656 194.660156 296.246094 196.125 C 295.265625 197.589844 294.25 199.03125 293.203125 200.445312 C 292.152344 201.859375 291.070312 203.25 289.949219 204.609375 C 288.832031 205.972656 287.683594 207.304688 286.5 208.613281 C 285.316406 209.917969 284.101562 211.191406 282.855469 212.4375 C 281.609375 213.683594 280.335938 214.898438 279.027344 216.082031 C 277.722656 217.265625 276.390625 218.417969 275.027344 219.535156 C 273.664062 220.652344 272.277344 221.734375 270.863281 222.785156 C 269.445312 223.835938 268.007812 224.847656 266.542969 225.828125 C 265.078125 226.804688 263.589844 227.75 262.078125 228.65625 C 260.566406 229.558594 259.035156 230.429688 257.480469 231.257812 C 255.925781 232.089844 254.351562 232.882812 252.761719 233.636719 C 251.167969 234.386719 249.558594 235.101562 247.929688 235.777344 C 246.300781 236.449219 244.65625 237.085938 243 237.679688 C 241.339844 238.273438 239.667969 238.824219 237.980469 239.335938 C 236.296875 239.847656 234.597656 240.316406 232.890625 240.746094 C 231.179688 241.171875 229.460938 241.558594 227.734375 241.902344 C 226.003906 242.246094 224.269531 242.546875 222.527344 242.804688 C 220.785156 243.066406 219.035156 243.28125 217.28125 243.453125 C 215.527344 243.625 213.773438 243.753906 212.011719 243.839844 C 210.253906 243.929688 208.492188 243.972656 206.730469 243.972656 Z M 206.730469 243.972656 " fill-opacity="1" fill-rule="nonzero"/></g><g fill="#000000" fill-opacity="1"><g transform="translate(192.322308, 215.359781)"><g><path d="M 93.359375 -50.09375 C 93.203125 -48.570312 93.125 -46.75 93.125 -44.625 C 93.125 -42.5 93.125 -40.144531 93.125 -37.5625 C 93.28125 -28.613281 90.320312 -20.492188 84.25 -13.203125 C 80.90625 -9.253906 77.5625 -6.332031 74.21875 -4.4375 C 70.882812 -2.539062 66.863281 -1.25 62.15625 -0.5625 C 57.445312 0.113281 51.523438 0.414062 44.390625 0.34375 C 37.265625 0.269531 28.3125 0.15625 17.53125 0 C 15.101562 0 13.28125 -0.609375 12.0625 -1.828125 C 11.300781 -2.734375 10.84375 -4.132812 10.6875 -6.03125 C 10.539062 -7.925781 10.46875 -10.773438 10.46875 -14.578125 L 10.46875 -71.5 L 1.359375 -76.734375 C 0.148438 -77.492188 -0.453125 -78.554688 -0.453125 -79.921875 C -0.453125 -81.429688 0.148438 -82.566406 1.359375 -83.328125 L 10.46875 -88.578125 L 10.46875 -148.6875 C 10.46875 -154.300781 10.925781 -157.5625 11.84375 -158.46875 C 13.050781 -159.6875 15.285156 -160.296875 18.546875 -160.296875 C 21.816406 -160.296875 27.78125 -160.21875 36.4375 -160.0625 C 39.46875 -160.0625 42.160156 -160.0625 44.515625 -160.0625 C 46.867188 -160.0625 48.957031 -160.140625 50.78125 -160.296875 C 61.25 -160.441406 70.125 -157.476562 77.40625 -151.40625 C 81.050781 -148.21875 84.050781 -144.082031 86.40625 -139 C 88.757812 -133.914062 90.273438 -128.453125 90.953125 -122.609375 C 91.640625 -116.765625 91.375 -110.921875 90.15625 -105.078125 C 88.945312 -99.234375 86.597656 -94.035156 83.109375 -89.484375 C 81.585938 -87.359375 80.828125 -85.609375 80.828125 -84.234375 C 80.828125 -82.867188 81.738281 -81.125 83.5625 -79 C 90.394531 -71.414062 93.660156 -61.78125 93.359375 -50.09375 Z M 39.625 -125.90625 C 39.164062 -123.175781 38.859375 -119.953125 38.703125 -116.234375 C 38.554688 -112.515625 38.820312 -109.019531 39.5 -105.75 C 40.1875 -102.488281 41.550781 -100.023438 43.59375 -98.359375 C 45.644531 -96.691406 48.644531 -96.539062 52.59375 -97.90625 C 55.476562 -98.8125 57.601562 -100.40625 58.96875 -102.6875 C 61.25 -106.78125 62.390625 -111.410156 62.390625 -116.578125 L 61.015625 -123.40625 C 59.046875 -129.320312 55.101562 -132.507812 49.1875 -132.96875 C 46.300781 -133.269531 44.097656 -132.890625 42.578125 -131.828125 C 41.054688 -130.765625 40.070312 -128.789062 39.625 -125.90625 Z M 60.796875 -34.375 C 65.191406 -42.726562 65.722656 -51.382812 62.390625 -60.34375 C 61.171875 -63.832031 58.703125 -66.640625 54.984375 -68.765625 C 51.265625 -70.890625 47.8125 -71.191406 44.625 -69.671875 C 42.65625 -68.609375 41.289062 -67.394531 40.53125 -66.03125 C 39.769531 -64.664062 39.390625 -62.613281 39.390625 -59.875 C 39.390625 -57.144531 39.390625 -53.203125 39.390625 -48.046875 C 39.390625 -42.429688 39.390625 -38.179688 39.390625 -35.296875 C 39.390625 -32.410156 39.878906 -30.394531 40.859375 -29.25 C 41.847656 -28.113281 43.632812 -27.472656 46.21875 -27.328125 C 53.195312 -27.171875 58.054688 -29.519531 60.796875 -34.375 Z M 60.796875 -34.375 "/></g></g></g><g fill="#ffffff" fill-opacity="1"><g transform="translate(151.845305, 365.417395)"><g><path d="M -44.34375 -14.90625 C -44.34375 -15.28125 -44.296875 -16.019531 -44.203125 -17.125 C -44.117188 -18.238281 -43.863281 -19.503906 -43.4375 -20.921875 C -43.007812 -22.347656 -42.320312 -23.742188 -41.375 -25.109375 C -40.4375 -26.484375 -39.132812 -27.617188 -37.46875 -28.515625 C -35.8125 -29.421875 -33.671875 -29.875 -31.046875 -29.875 C -28.867188 -29.875 -27.03125 -29.539062 -25.53125 -28.875 C -24.03125 -28.21875 -22.800781 -27.34375 -21.84375 -26.25 C -20.882812 -25.15625 -20.125 -24 -19.5625 -22.78125 C -19.007812 -21.5625 -18.613281 -20.390625 -18.375 -19.265625 C -18.132812 -18.140625 -17.984375 -17.175781 -17.921875 -16.375 C -17.867188 -15.582031 -17.84375 -15.09375 -17.84375 -14.90625 L -17.84375 -8.3125 L -0.5 -8.3125 C -0.164062 -8.3125 0 -8.128906 0 -7.765625 L 0 -0.546875 C 0 -0.179688 -0.164062 0 -0.5 0 L -26.0625 0 L -26.0625 -14.90625 C -26.0625 -15.207031 -26.097656 -15.695312 -26.171875 -16.375 C -26.242188 -17.0625 -26.425781 -17.800781 -26.71875 -18.59375 C -27.019531 -19.394531 -27.507812 -20.070312 -28.1875 -20.625 C -28.875 -21.175781 -29.828125 -21.453125 -31.046875 -21.453125 C -32.265625 -21.453125 -33.222656 -21.164062 -33.921875 -20.59375 C -34.628906 -20.019531 -35.140625 -19.335938 -35.453125 -18.546875 C -35.765625 -17.753906 -35.96875 -17.015625 -36.0625 -16.328125 C -36.15625 -15.640625 -36.203125 -15.164062 -36.203125 -14.90625 L -36.203125 0 L -43.84375 0 C -44.175781 0 -44.34375 -0.179688 -44.34375 -0.546875 Z M -44.34375 -14.90625 "/></g></g></g><g fill="#ffffff" fill-opacity="1"><g transform="translate(151.845305, 334.050155)"><g><path d="M -0.71875 -30.265625 C -0.53125 -30.335938 -0.363281 -30.328125 -0.21875 -30.234375 C -0.0703125 -30.148438 0 -29.992188 0 -29.765625 L 0 -21.84375 C 0 -21.550781 -0.109375 -21.363281 -0.328125 -21.28125 L -17.90625 -13.1875 L -17.90625 -8.421875 L -0.5 -8.421875 C -0.164062 -8.421875 0 -8.21875 0 -7.8125 L 0 -0.546875 C 0 -0.179688 -0.164062 0 -0.5 0 L -26.0625 0 L -26.0625 -14.90625 C -26.0625 -15.351562 -26.097656 -15.945312 -26.171875 -16.6875 C -26.242188 -17.425781 -26.445312 -18.15625 -26.78125 -18.875 C -27.113281 -19.59375 -27.617188 -20.203125 -28.296875 -20.703125 C -28.984375 -21.203125 -29.9375 -21.453125 -31.15625 -21.453125 C -32.375 -21.453125 -33.332031 -21.179688 -34.03125 -20.640625 C -34.738281 -20.109375 -35.25 -19.453125 -35.5625 -18.671875 C -35.875 -17.898438 -36.078125 -17.160156 -36.171875 -16.453125 C -36.265625 -15.753906 -36.3125 -15.238281 -36.3125 -14.90625 L -36.3125 0 L -43.84375 0 C -44.175781 0 -44.34375 -0.179688 -44.34375 -0.546875 L -44.34375 -14.90625 C -44.34375 -15.425781 -44.296875 -16.257812 -44.203125 -17.40625 C -44.117188 -18.550781 -43.875 -19.832031 -43.46875 -21.25 C -43.0625 -22.675781 -42.394531 -24.046875 -41.46875 -25.359375 C -40.539062 -26.671875 -39.242188 -27.75 -37.578125 -28.59375 C -35.921875 -29.445312 -33.78125 -29.875 -31.15625 -29.875 C -28.90625 -29.875 -26.992188 -29.503906 -25.421875 -28.765625 C -23.847656 -28.023438 -22.5625 -27.035156 -21.5625 -25.796875 C -20.5625 -24.566406 -19.785156 -23.210938 -19.234375 -21.734375 C -16.097656 -23.140625 -12.992188 -24.570312 -9.921875 -26.03125 C -6.859375 -27.488281 -3.789062 -28.898438 -0.71875 -30.265625 Z M -0.71875 -30.265625 "/></g></g></g><g fill="#ffffff" fill-opacity="1"><g transform="translate(151.845305, 302.184134)"><g><path d="M -22.0625 -25.5 C -20.914062 -25.5 -19.9375 -25.101562 -19.125 -24.3125 C -18.3125 -23.519531 -17.90625 -22.53125 -17.90625 -21.34375 C -17.90625 -20.195312 -18.3125 -19.21875 -19.125 -18.40625 C -19.9375 -17.59375 -20.914062 -17.1875 -22.0625 -17.1875 C -23.25 -17.1875 -24.25 -17.59375 -25.0625 -18.40625 C -25.875 -19.21875 -26.28125 -20.195312 -26.28125 -21.34375 C -26.28125 -22.53125 -25.875 -23.519531 -25.0625 -24.3125 C -24.25 -25.101562 -23.25 -25.5 -22.0625 -25.5 Z M -22.234375 -42.6875 C -19.460938 -42.6875 -16.753906 -42.242188 -14.109375 -41.359375 C -11.460938 -40.472656 -9.078125 -39.140625 -6.953125 -37.359375 C -4.828125 -35.585938 -3.132812 -33.367188 -1.875 -30.703125 C -0.625 -28.046875 0 -24.945312 0 -21.40625 C 0 -17.8125 -0.625 -14.675781 -1.875 -12 C -3.132812 -9.320312 -4.828125 -7.09375 -6.953125 -5.3125 C -9.078125 -3.539062 -11.460938 -2.210938 -14.109375 -1.328125 C -16.753906 -0.441406 -19.460938 0 -22.234375 0 C -25.003906 0 -27.703125 -0.441406 -30.328125 -1.328125 C -32.953125 -2.210938 -35.316406 -3.539062 -37.421875 -5.3125 C -39.523438 -7.09375 -41.203125 -9.320312 -42.453125 -12 C -43.710938 -14.675781 -44.34375 -17.8125 -44.34375 -21.40625 C -44.34375 -24.945312 -43.710938 -28.046875 -42.453125 -30.703125 C -41.203125 -33.367188 -39.523438 -35.585938 -37.421875 -37.359375 C -35.316406 -39.140625 -32.953125 -40.472656 -30.328125 -41.359375 C -27.703125 -42.242188 -25.003906 -42.6875 -22.234375 -42.6875 Z M -22.0625 -34.375 C -23.875 -34.375 -25.640625 -34.09375 -27.359375 -33.53125 C -29.078125 -32.976562 -30.628906 -32.164062 -32.015625 -31.09375 C -33.398438 -30.03125 -34.5 -28.679688 -35.3125 -27.046875 C -36.125 -25.421875 -36.53125 -23.539062 -36.53125 -21.40625 C -36.53125 -19.21875 -36.125 -17.3125 -35.3125 -15.6875 C -34.5 -14.0625 -33.398438 -12.703125 -32.015625 -11.609375 C -30.628906 -10.523438 -29.078125 -9.710938 -27.359375 -9.171875 C -25.640625 -8.640625 -23.875 -8.375 -22.0625 -8.375 C -20.289062 -8.375 -18.550781 -8.640625 -16.84375 -9.171875 C -15.144531 -9.710938 -13.613281 -10.523438 -12.25 -11.609375 C -10.882812 -12.703125 -9.796875 -14.0625 -8.984375 -15.6875 C -8.171875 -17.3125 -7.765625 -19.21875 -7.765625 -21.40625 C -7.765625 -23.539062 -8.171875 -25.421875 -8.984375 -27.046875 C -9.796875 -28.679688 -10.882812 -30.03125 -12.25 -31.09375 C -13.613281 -32.164062 -15.144531 -32.976562 -16.84375 -33.53125 C -18.550781 -34.09375 -20.289062 -34.375 -22.0625 -34.375 Z M -22.0625 -34.375 "/></g></g></g><g fill="#ffffff" fill-opacity="1"><g transform="translate(151.845305, 257.405453)"><g><path d="M -36.75 -3.71875 C -36.75 -3.3125 -36.914062 -3.109375 -37.25 -3.109375 L -43.84375 -3.109375 C -44.175781 -3.109375 -44.34375 -3.3125 -44.34375 -3.71875 L -44.34375 -18.796875 C -44.34375 -19.160156 -44.175781 -19.34375 -43.84375 -19.34375 L -36.75 -19.34375 Z M -29.15625 -10.921875 L -29.15625 -19.34375 L -13.078125 -19.34375 C -10.898438 -19.34375 -9.0625 -19.019531 -7.5625 -18.375 C -6.070312 -17.726562 -4.84375 -16.90625 -3.875 -15.90625 C -2.914062 -14.90625 -2.164062 -13.84375 -1.625 -12.71875 C -1.09375 -11.59375 -0.71875 -10.53125 -0.5 -9.53125 C -0.28125 -8.53125 -0.140625 -7.707031 -0.078125 -7.0625 C -0.0234375 -6.414062 0 -6.09375 0 -6.09375 L 0 -0.609375 C 0 -0.203125 -0.164062 0 -0.5 0 L -7.703125 0 C -8.035156 0 -8.203125 -0.203125 -8.203125 -0.609375 L -8.203125 -6.09375 C -8.203125 -7.3125 -8.453125 -8.242188 -8.953125 -8.890625 C -9.453125 -9.546875 -10.015625 -10.019531 -10.640625 -10.3125 C -11.273438 -10.601562 -11.835938 -10.773438 -12.328125 -10.828125 C -12.828125 -10.890625 -13.078125 -10.921875 -13.078125 -10.921875 Z M -29.15625 -10.921875 "/></g></g></g><g fill="#ffffff" fill-opacity="1"><g transform="translate(151.845305, 237.066625)"><g><path d="M -8.265625 -21.0625 L 0 -21.0625 L 0 -0.609375 C 0 -0.203125 -0.164062 0 -0.5 0 L -43.84375 0 C -44.175781 0 -44.34375 -0.203125 -44.34375 -0.609375 L -44.34375 -21.0625 L -36.3125 -21.0625 L -36.3125 -8.484375 L -26.28125 -8.484375 L -26.28125 -25.890625 C -26.28125 -26.296875 -26.113281 -26.5 -25.78125 -26.5 L -18.734375 -26.5 C -18.398438 -26.5 -18.234375 -26.296875 -18.234375 -25.890625 L -18.234375 -8.484375 L -8.265625 -8.484375 Z M -8.265625 -21.0625 "/></g></g></g><g fill="#ffffff" fill-opacity="1"><g transform="translate(151.845305, 209.246211)"><g><path d="M -44.34375 -40.40625 C -44.34375 -40.707031 -44.25 -40.910156 -44.0625 -41.015625 C -43.882812 -41.128906 -43.703125 -41.113281 -43.515625 -40.96875 L -22.171875 -25.671875 C -19.921875 -27.296875 -17.648438 -28.929688 -15.359375 -30.578125 C -13.066406 -32.222656 -10.773438 -33.859375 -8.484375 -35.484375 L -8.484375 -25.171875 L -14.96875 -20.5625 L -0.171875 -9.984375 C -0.128906 -9.941406 -0.0859375 -9.863281 -0.046875 -9.75 C -0.015625 -9.644531 0 -9.554688 0 -9.484375 L 0 -0.609375 C 0 -0.347656 -0.0859375 -0.171875 -0.265625 -0.078125 C -0.453125 0.015625 -0.640625 -0.015625 -0.828125 -0.171875 L -22.171875 -15.359375 C -24.429688 -13.734375 -26.707031 -12.101562 -29 -10.46875 C -31.289062 -8.84375 -33.582031 -7.21875 -35.875 -5.59375 L -35.875 -15.90625 L -29.375 -20.5625 L -44.1875 -31.046875 C -44.257812 -31.078125 -44.300781 -31.15625 -44.3125 -31.28125 C -44.332031 -31.414062 -44.34375 -31.503906 -44.34375 -31.546875 Z M -44.34375 -40.40625 "/></g></g></g><g fill="#ffffff" fill-opacity="1"><g transform="translate(151.845305, 166.130096)"><g><path d="M -31.15625 -21.625 C -32.488281 -21.625 -33.515625 -21.289062 -34.234375 -20.625 C -34.953125 -19.957031 -35.46875 -19.195312 -35.78125 -18.34375 C -36.09375 -17.5 -36.273438 -16.742188 -36.328125 -16.078125 C -36.390625 -15.410156 -36.421875 -15.078125 -36.421875 -15.078125 L -36.421875 -8.421875 L -26.28125 -8.421875 L -26.28125 -15.078125 C -26.28125 -15.078125 -26.304688 -15.410156 -26.359375 -16.078125 C -26.410156 -16.742188 -26.582031 -17.5 -26.875 -18.34375 C -27.175781 -19.195312 -27.660156 -19.957031 -28.328125 -20.625 C -28.992188 -21.289062 -29.9375 -21.625 -31.15625 -21.625 Z M -31.65625 -30.109375 C -29.070312 -30.109375 -27.019531 -29.503906 -25.5 -28.296875 C -23.988281 -27.097656 -22.878906 -25.648438 -22.171875 -23.953125 C -21.578125 -25.722656 -20.769531 -27.066406 -19.75 -27.984375 C -18.738281 -28.910156 -17.707031 -29.566406 -16.65625 -29.953125 C -15.601562 -30.347656 -14.71875 -30.570312 -14 -30.625 C -13.28125 -30.6875 -12.921875 -30.71875 -12.921875 -30.71875 C -10.441406 -30.71875 -8.40625 -30.28125 -6.8125 -29.40625 C -5.226562 -28.539062 -3.972656 -27.429688 -3.046875 -26.078125 C -2.117188 -24.734375 -1.429688 -23.332031 -0.984375 -21.875 C -0.546875 -20.414062 -0.269531 -19.066406 -0.15625 -17.828125 C -0.0507812 -16.585938 0 -15.671875 0 -15.078125 L 0 -8.484375 L -8.09375 -8.484375 L -8.09375 -15.078125 C -8.09375 -16.003906 -8.210938 -17.019531 -8.453125 -18.125 C -8.691406 -19.238281 -9.179688 -20.203125 -9.921875 -21.015625 C -10.660156 -21.828125 -11.734375 -22.234375 -13.140625 -22.234375 C -14.171875 -22.234375 -15.007812 -21.992188 -15.65625 -21.515625 C -16.300781 -21.035156 -16.789062 -20.441406 -17.125 -19.734375 C -17.457031 -19.035156 -17.679688 -18.320312 -17.796875 -17.59375 C -17.910156 -16.875 -17.972656 -16.273438 -17.984375 -15.796875 C -18.003906 -15.316406 -18.015625 -15.078125 -18.015625 -15.078125 L -18.015625 0 L -43.84375 0 C -44.175781 0 -44.34375 -0.203125 -44.34375 -0.609375 L -44.34375 -15.078125 C -44.34375 -15.078125 -44.320312 -15.4375 -44.28125 -16.15625 C -44.25 -16.875 -44.128906 -17.804688 -43.921875 -18.953125 C -43.722656 -20.097656 -43.375 -21.304688 -42.875 -22.578125 C -42.375 -23.859375 -41.660156 -25.070312 -40.734375 -26.21875 C -39.816406 -27.363281 -38.617188 -28.296875 -37.140625 -29.015625 C -35.660156 -29.742188 -33.832031 -30.109375 -31.65625 -30.109375 Z M -31.65625 -30.109375 "/></g></g></g><g fill="#ffffff" fill-opacity="1"><g transform="translate(151.845305, 133.876142)"><g><path d="M -7.59375 -18.078125 C -7.59375 -18.484375 -7.425781 -18.6875 -7.09375 -18.6875 L -0.5 -18.6875 C -0.164062 -18.6875 0 -18.484375 0 -18.078125 L 0 -0.609375 C 0 -0.203125 -0.164062 0 -0.5 0 L -7.09375 0 C -7.425781 0 -7.59375 -0.203125 -7.59375 -0.609375 L -7.59375 -5.15625 L -44.34375 -5.15625 L -44.34375 -13.640625 L -7.59375 -13.640625 Z M -7.59375 -18.078125 "/></g></g></g><g fill="#ffffff" fill-opacity="1"><g transform="translate(151.845305, 114.257748)"><g><path d="M -22.0625 -25.5 C -20.914062 -25.5 -19.9375 -25.101562 -19.125 -24.3125 C -18.3125 -23.519531 -17.90625 -22.53125 -17.90625 -21.34375 C -17.90625 -20.195312 -18.3125 -19.21875 -19.125 -18.40625 C -19.9375 -17.59375 -20.914062 -17.1875 -22.0625 -17.1875 C -23.25 -17.1875 -24.25 -17.59375 -25.0625 -18.40625 C -25.875 -19.21875 -26.28125 -20.195312 -26.28125 -21.34375 C -26.28125 -22.53125 -25.875 -23.519531 -25.0625 -24.3125 C -24.25 -25.101562 -23.25 -25.5 -22.0625 -25.5 Z M -22.234375 -42.6875 C -19.460938 -42.6875 -16.753906 -42.242188 -14.109375 -41.359375 C -11.460938 -40.472656 -9.078125 -39.140625 -6.953125 -37.359375 C -4.828125 -35.585938 -3.132812 -33.367188 -1.875 -30.703125 C -0.625 -28.046875 0 -24.945312 0 -21.40625 C 0 -17.8125 -0.625 -14.675781 -1.875 -12 C -3.132812 -9.320312 -4.828125 -7.09375 -6.953125 -5.3125 C -9.078125 -3.539062 -11.460938 -2.210938 -14.109375 -1.328125 C -16.753906 -0.441406 -19.460938 0 -22.234375 0 C -25.003906 0 -27.703125 -0.441406 -30.328125 -1.328125 C -32.953125 -2.210938 -35.316406 -3.539062 -37.421875 -5.3125 C -39.523438 -7.09375 -41.203125 -9.320312 -42.453125 -12 C -43.710938 -14.675781 -44.34375 -17.8125 -44.34375 -21.40625 C -44.34375 -24.945312 -43.710938 -28.046875 -42.453125 -30.703125 C -41.203125 -33.367188 -39.523438 -35.585938 -37.421875 -37.359375 C -35.316406 -39.140625 -32.953125 -40.472656 -30.328125 -41.359375 C -27.703125 -42.242188 -25.003906 -42.6875 -22.234375 -42.6875 Z M -22.0625 -34.375 C -23.875 -34.375 -25.640625 -34.09375 -27.359375 -33.53125 C -29.078125 -32.976562 -30.628906 -32.164062 -32.015625 -31.09375 C -33.398438 -30.03125 -34.5 -28.679688 -35.3125 -27.046875 C -36.125 -25.421875 -36.53125 -23.539062 -36.53125 -21.40625 C -36.53125 -19.21875 -36.125 -17.3125 -35.3125 -15.6875 C -34.5 -14.0625 -33.398438 -12.703125 -32.015625 -11.609375 C -30.628906 -10.523438 -29.078125 -9.710938 -27.359375 -9.171875 C -25.640625 -8.640625 -23.875 -8.375 -22.0625 -8.375 C -20.289062 -8.375 -18.550781 -8.640625 -16.84375 -9.171875 C -15.144531 -9.710938 -13.613281 -10.523438 -12.25 -11.609375 C -10.882812 -12.703125 -9.796875 -14.0625 -8.984375 -15.6875 C -8.171875 -17.3125 -7.765625 -19.21875 -7.765625 -21.40625 C -7.765625 -23.539062 -8.171875 -25.421875 -8.984375 -27.046875 C -9.796875 -28.679688 -10.882812 -30.03125 -12.25 -31.09375 C -13.613281 -32.164062 -15.144531 -32.976562 -16.84375 -33.53125 C -18.550781 -34.09375 -20.289062 -34.375 -22.0625 -34.375 Z M -22.0625 -34.375 "/></g></g></g></svg>